<svg xmlns="http://www.w3.org/2000/svg" xmlns:xlink="http://www.w3.org/1999/xlink" xmlns:lucid="lucid" width="491" height="760"><g transform="translate(-9 -20)" lucid:page-tab-id="0_0"><path d="M0 0h1760v1360H0z" fill="#fff"/><path d="M248 360c17.67 0 32 17.9 32 40s-14.33 40-32 40h-96c-17.67 0-32-17.9-32-40s14.33-40 32-40z" stroke="#000" stroke-width="2" fill="#fff"/><use xlink:href="#a" transform="matrix(1,0,0,1,125,365) translate(32.525 27.799999999999997)"/><use xlink:href="#b" transform="matrix(1,0,0,1,125,365) translate(65.375 49.4)"/><path d="M248 520c17.67 0 32 17.9 32 40s-14.33 40-32 40h-96c-17.67 0-32-17.9-32-40s14.33-40 32-40z" stroke="#000" stroke-width="2" fill="#fff"/><use xlink:href="#c" transform="matrix(1,0,0,1,125,525) translate(44.074999999999996 27.799999999999997)"/><use xlink:href="#d" transform="matrix(1,0,0,1,125,525) translate(65.025 49.4)"/><path d="M248 680c17.67 0 32 17.9 32 40s-14.33 40-32 40h-96c-17.67 0-32-17.9-32-40s14.33-40 32-40z" stroke="#000" stroke-width="2" fill="#fff"/><use xlink:href="#e" transform="matrix(1,0,0,1,125,685) translate(60.05 27.799999999999997)"/><use xlink:href="#f" transform="matrix(1,0,0,1,125,685) translate(65.375 49.4)"/><path d="M384 40c41.97 0 76 17.9 76 40s-34.03 40-76 40H156c-41.97 0-76-17.9-76-40s34.03-40 76-40z" stroke="#000" stroke-width="2" fill="#fff"/><use xlink:href="#g" transform="matrix(1,0,0,1,85,45) translate(136.55 27.799999999999997)"/><use xlink:href="#h" transform="matrix(1,0,0,1,85,45) translate(168.0425 49.4)"/><path d="M201 340.5h-2V328h2zm0-39.17h-2V282h2z"/><path d="M200 281l1-.03v1.06h-2v-1.1zM200 355.76l-4.64-14.26h9.28z"/><path d="M200 359l-6-18.5h12zm-3.26-16.5l3.26 10.03 3.26-10.03z"/><use xlink:href="#i" transform="matrix(1,0,0,1,188.7037037037037,301.33333333333337) translate(0 17.77777777777778)"/><path d="M200 122v58.5" stroke="#000" stroke-width="2" fill="none"/><path d="M201 122.03h-2V121h2z"/><path d="M200 195.76l-4.64-14.26h9.28z" stroke="#000" stroke-width="2"/><path d="M201 500.5h-2v-7.17h2zm0-33.83h-2V442h2z"/><path d="M201 442.03h-2V441h2zM200 515.76l-4.64-14.26h9.28z"/><path d="M200 519l-6-18.5h12zm-3.26-16.5l3.26 10.03 3.26-10.03z"/><use xlink:href="#j" transform="matrix(1,0,0,1,188.7037037037037,466.6666666666667) translate(0 17.77777777777778)"/><path d="M201 660.5h-2v-12.43h2zm0-39.1h-2V602h2z"/><path d="M201 602.03h-2V601h2zM200 675.76l-4.64-14.26h9.28z"/><path d="M200 679l-6-18.5h12zm-3.26-16.5l3.26 10.03 3.26-10.03z"/><use xlink:href="#k" transform="matrix(1,0,0,1,188.7037037037037,621.4008438818565) translate(0 17.77777777777778)"/><path d="M240 240c0 22.1-17.9 40-40 40s-40-17.9-40-40 17.9-40 40-40 40 17.9 40 40z" stroke="#000" stroke-width="2" fill="#fff"/><use xlink:href="#l" transform="matrix(1,0,0,1,165,205) translate(16.525 38.6)"/><path d="M107.8 264.5H51V559h49.5v2H49V262.5h58.8zm57.7 0h-34.24v-2h34.23z"/><path d="M167.22 264.5h-1.76v-2h.3zM115.76 560l-14.26 4.64v-9.28z"/><path d="M119 560l-18.5 6v-12zm-16.5 3.26l10.03-3.26-10.03-3.26z"/><use xlink:href="#m" transform="matrix(1,0,0,1,107.79992177345629,250.17304307170107) translate(0 17.77777777777778)"/><path d="M101.73 217.73H21V719h79.5v2H19V215.73h82.73zm63.56 0H124.3v-2h40.97z"/><path d="M166.73 216.03l-1.07 1.7h-.4v-2h1.72zM115.76 720l-14.26 4.64v-9.28z"/><path d="M119 720l-18.5 6v-12zm-16.5 3.26l10.03-3.26-10.03-3.26z"/><use xlink:href="#n" transform="matrix(1,0,0,1,101.72925690831856,203.39945960427426) translate(0 17.77777777777778)"/><path d="M80 555.73l-3.34 1.1-1.46 2-.17 1.1.78 2.4 2 1.47 2.2.35v131.9h26.14v2H78v-132.2l-.98-.16-2.9-2.13-1.15-3.5.34-2.05 2.13-2.9 2.57-.85v-77.9h2zM118 401H80v48.7h-2V399h40z"/><path d="M119 400l.03 1h-1.06v-2h1.1zM121.4 697.06l-14.26 4.63v-9.28z"/><path d="M124.64 697.06l-18.5 6v-12zm-16.5 3.26l10.03-3.26-10.03-3.26z"/><use xlink:href="#o" transform="matrix(1,0,0,1,68.13518025060826,449.7019286477706) translate(0 17.77777777777778)"/><path d="M306.18 438V139.5" stroke="#000" stroke-width="2" fill="none"/><path d="M307.18 439.08l-.98-.08-1.02.03v-1.06h2z"/><path d="M306.18 124.24l4.64 14.26h-9.28z" stroke="#000" stroke-width="2"/><path d="M307.18 540.97h-29.43v-2h27.43V519.5h2z"/><path d="M277.78 540.97h-.62l-.76-1.88-.07-.13h1.45zM310.82 518.5h-9.28l4.64-14.26z"/><path d="M312.2 519.5h-12.03l6-18.5zm-9.28-2h6.52l-3.26-10.03z"/><use xlink:href="#p" transform="matrix(1,0,0,1,290.67431900092174,529.1733103937837) translate(0 14.4)"/><path d="M276.62 697.7h69.74v-18.2" stroke="#000" stroke-width="2" fill="none"/><path d="M276.65 698.7h-.47l-1.1-2h1.57z"/><path d="M346.36 664.24L351 678.5h-9.27z" stroke="#000" stroke-width="2"/><path d="M347.36 598h-2V139.5h2z"/><path d="M347.36 599.08l-.98-.08-1.02.03v-1.06h2zM351 138.5h-9.27l4.63-14.26z"/><path d="M352.37 139.5h-12.02l6-18.5zm-9.27-2h6.52l-3.26-10.03z"/><path d="M376.36 630c0 16.57-13.43 30-30 30s-30-13.43-30-30 13.43-30 30-30 30 13.43 30 30z" stroke="#000" stroke-width="2" fill="#fff"/><use xlink:href="#q" transform="matrix(1,0,0,1,321.360752849154,605) translate(8.899999999999999 28.6)"/><path d="M336.18 470c0 16.57-13.43 30-30 30s-30-13.43-30-30 13.43-30 30-30 30 13.43 30 30z" stroke="#000" stroke-width="2" fill="#fff"/><use xlink:href="#r" transform="matrix(1,0,0,1,281.17997715529344,445) translate(8.55 28.6)"/><path d="M480 290c0 27.6-22.4 50-50 50s-50-22.4-50-50 22.4-50 50-50 50 22.4 50 50z" stroke="#000" stroke-width="2" fill="#fff"/><use xlink:href="#s" transform="matrix(1,0,0,1,385,245) translate(7.524999999999999 27)"/><use xlink:href="#t" transform="matrix(1,0,0,1,385,245) translate(15.5 48.6)"/><use xlink:href="#u" transform="matrix(1,0,0,1,385,245) translate(31.4925 70.2)"/><path d="M349.93 555.1l2.12 2.92.16.98h28.02v2h-29.7l-.36-2.18-1.46-2-2.42-.8-1.1.18-2 1.46-1.1 3.34H282v-2h58.64l.84-2.57 2.9-2.12 2.06-.33zM431 561h-32.55v-2H429V359.5h2z"/><path d="M282.03 561h-1.1l.07-1-.03-1h1.06zM434.64 358.5h-9.28l4.64-14.26z"/><path d="M436 359.5h-12l6-18.5zm-9.26-2h6.52L430 347.47z"/><use xlink:href="#v" transform="matrix(1,0,0,1,380.2191358024691,546.6666666666666) translate(0 17.77777777777778)"/><path d="M430 238V131.4" stroke="#000" stroke-width="2" fill="none"/><path d="M431 239.05l-1-.05-1 .03v-1.06h2z"/><path d="M430 116.13l4.64 14.27h-9.28z" stroke="#000" stroke-width="2"/><path d="M393.98 721H282v-2h111.98zm69.22 0h-51.85v-2h49.85V348.02h2z"/><path d="M282.03 721h-1.1l.07-1-.03-1h1.06zM466.84 347.02h-9.27l4.63-14.27z"/><path d="M468.2 348.02h-12l6-18.5zm-9.26-2h6.52L462.2 336z"/><use xlink:href="#w" transform="matrix(1,0,0,1,393.9845679012346,706.6666666666666) translate(0 17.77777777777778)"/><path d="M349.93 395.1l2.12 2.92.16.98h14.5v2h-16.2l-.34-2.18-1.46-2-2.42-.8-1.1.18-2 1.46-1.1 3.34h-31.75l-.35-2.18-1.46-2-2.42-.8-1.1.18-2 1.46-1.1 3.34H282v-2h18.45l.84-2.57 2.9-2.12 2.06-.33 3.5 1.14 2.1 2.92.17.98h28.6l.85-2.57 2.9-2.12 2.06-.33zm54 5.9h-19.86v-2h17.85v-47.34h2z"/><path d="M282.03 401h-1.1l.07-1-.03-1h1.06zM407.56 350.66h-9.27l4.62-14.27z"/><path d="M408.94 351.66H396.9l6.02-18.5zm-9.27-2h6.5l-3.25-10.03z"/><g><use xlink:href="#x" transform="matrix(1,0,0,1,366.70175487417026,386.6666666666667) translate(0 17.77777777777778)"/></g><defs><path d="M137 0h-34L2-248h35l83 218 83-218h36" id="y"/><path d="M100-194c63 0 86 42 84 106H49c0 40 14 67 53 68 26 1 43-12 49-29l28 8c-11 28-37 45-77 45C44 4 14-33 15-96c1-61 26-98 85-98zm52 81c6-60-76-77-97-28-3 7-6 17-6 28h103" id="z"/><path d="M177-190C167-65 218 103 67 71c-23-6-38-20-44-43l32-5c15 47 100 32 89-28v-30C133-14 115 1 83 1 29 1 15-40 15-95c0-56 16-97 71-98 29-1 48 16 59 35 1-10 0-23 2-32h30zM94-22c36 0 50-32 50-73 0-42-14-75-50-75-39 0-46 34-46 75s6 73 46 73" id="A"/><path d="M59-47c-2 24 18 29 38 22v24C64 9 27 4 27-40v-127H5v-23h24l9-43h21v43h35v23H59v120" id="B"/><path d="M141-36C126-15 110 5 73 4 37 3 15-17 15-53c-1-64 63-63 125-63 3-35-9-54-41-54-24 1-41 7-42 31l-33-3c5-37 33-52 76-52 45 0 72 20 72 64v82c-1 20 7 32 28 27v20c-31 9-61-2-59-35zM48-53c0 20 12 33 32 33 41-3 63-29 60-74-43 2-92-5-92 41" id="C"/><path d="M24-231v-30h32v30H24zM24 0v-190h32V0H24" id="D"/><path d="M100-194c62-1 85 37 85 99 1 63-27 99-86 99S16-35 15-95c0-66 28-99 85-99zM99-20c44 1 53-31 53-75 0-43-8-75-51-75s-53 32-53 75 10 74 51 75" id="E"/><path d="M117-194c89-4 53 116 60 194h-32v-121c0-31-8-49-39-48C34-167 62-67 57 0H25l-1-190h30c1 10-1 24 2 32 11-22 29-35 61-36" id="F"/><g id="a"><use transform="matrix(0.05,0,0,0.05,0,0)" xlink:href="#y"/><use transform="matrix(0.05,0,0,0.05,11,0)" xlink:href="#z"/><use transform="matrix(0.05,0,0,0.05,21,0)" xlink:href="#A"/><use transform="matrix(0.05,0,0,0.05,31,0)" xlink:href="#z"/><use transform="matrix(0.05,0,0,0.05,41,0)" xlink:href="#B"/><use transform="matrix(0.05,0,0,0.05,46,0)" xlink:href="#C"/><use transform="matrix(0.05,0,0,0.05,56,0)" xlink:href="#B"/><use transform="matrix(0.05,0,0,0.05,61,0)" xlink:href="#D"/><use transform="matrix(0.05,0,0,0.05,64.95,0)" xlink:href="#E"/><use transform="matrix(0.05,0,0,0.05,74.95,0)" xlink:href="#F"/></g><path d="M212-179c-10-28-35-45-73-45-59 0-87 40-87 99 0 60 29 101 89 101 43 0 62-24 78-52l27 14C228-24 195 4 139 4 59 4 22-46 18-125c-6-104 99-153 187-111 19 9 31 26 39 46" id="G"/><path d="M108 0H70L1-190h34L89-25l56-165h34" id="H"/><g id="b"><use transform="matrix(0.05,0,0,0.05,0,0)" xlink:href="#G"/><use transform="matrix(0.034999999999999996,0,0,0.034999999999999996,12.950000000000001,2.5199999999999996)" xlink:href="#H"/></g><path d="M30-248c118-7 216 8 213 122C240-48 200 0 122 0H30v-248zM63-27c89 8 146-16 146-99s-60-101-146-95v194" id="I"/><path d="M114-163C36-179 61-72 57 0H25l-1-190h30c1 12-1 29 2 39 6-27 23-49 58-41v29" id="J"/><path d="M84 4C-5 8 30-112 23-190h32v120c0 31 7 50 39 49 72-2 45-101 50-169h31l1 190h-30c-1-10 1-25-2-33-11 22-28 36-60 37" id="K"/><path d="M135-143c-3-34-86-38-87 0 15 53 115 12 119 90S17 21 10-45l28-5c4 36 97 45 98 0-10-56-113-15-118-90-4-57 82-63 122-42 12 7 21 19 24 35" id="L"/><g id="c"><use transform="matrix(0.05,0,0,0.05,0,0)" xlink:href="#I"/><use transform="matrix(0.05,0,0,0.05,12.950000000000001,0)" xlink:href="#z"/><use transform="matrix(0.05,0,0,0.05,22.950000000000003,0)" xlink:href="#B"/><use transform="matrix(0.05,0,0,0.05,27.950000000000003,0)" xlink:href="#J"/><use transform="matrix(0.05,0,0,0.05,33.900000000000006,0)" xlink:href="#D"/><use transform="matrix(0.05,0,0,0.05,37.85000000000001,0)" xlink:href="#B"/><use transform="matrix(0.05,0,0,0.05,42.85000000000001,0)" xlink:href="#K"/><use transform="matrix(0.05,0,0,0.05,52.85,0)" xlink:href="#L"/></g><path d="M85-194c31 0 48 13 60 33l-1-100h32l1 261h-30c-2-10 0-23-3-31C134-8 116 4 85 4 32 4 16-35 15-94c0-66 23-100 70-100zm9 24c-40 0-46 34-46 75 0 40 6 74 45 74 42 0 51-32 51-76 0-42-9-74-50-73" id="M"/><g id="d"><use transform="matrix(0.05,0,0,0.05,0,0)" xlink:href="#G"/><use transform="matrix(0.034999999999999996,0,0,0.034999999999999996,12.950000000000001,2.5199999999999996)" xlink:href="#M"/></g><path d="M185-189c-5-48-123-54-124 2 14 75 158 14 163 119 3 78-121 87-175 55-17-10-28-26-33-46l33-7c5 56 141 63 141-1 0-78-155-14-162-118-5-82 145-84 179-34 5 7 8 16 11 25" id="N"/><path d="M24 0v-261h32V0H24" id="O"/><g id="e"><use transform="matrix(0.05,0,0,0.05,0,0)" xlink:href="#N"/><use transform="matrix(0.05,0,0,0.05,12,0)" xlink:href="#E"/><use transform="matrix(0.05,0,0,0.05,22,0)" xlink:href="#D"/><use transform="matrix(0.05,0,0,0.05,25.950000000000003,0)" xlink:href="#O"/></g><g id="f"><use transform="matrix(0.05,0,0,0.05,0,0)" xlink:href="#G"/><use transform="matrix(0.034999999999999996,0,0,0.034999999999999996,12.950000000000001,2.5199999999999996)" xlink:href="#L"/></g><path d="M205 0l-28-72H64L36 0H1l101-248h38L239 0h-34zm-38-99l-47-123c-12 45-31 82-46 123h93" id="P"/><path d="M210-169c-67 3-38 105-44 169h-31v-121c0-29-5-50-35-48C34-165 62-65 56 0H25l-1-190h30c1 10-1 24 2 32 10-44 99-50 107 0 11-21 27-35 58-36 85-2 47 119 55 194h-31v-121c0-29-5-49-35-48" id="Q"/><path d="M115-194c55 1 70 41 70 98S169 2 115 4C84 4 66-9 55-30l1 105H24l-1-265h31l2 30c10-21 28-34 59-34zm-8 174c40 0 45-34 45-75s-6-73-45-74c-42 0-51 32-51 76 0 43 10 73 51 73" id="R"/><path d="M106-169C34-169 62-67 57 0H25v-261h32l-1 103c12-21 28-36 61-36 89 0 53 116 60 194h-32v-121c2-32-8-49-39-48" id="S"/><g id="g"><use transform="matrix(0.05,0,0,0.05,0,0)" xlink:href="#P"/><use transform="matrix(0.05,0,0,0.05,12,0)" xlink:href="#B"/><use transform="matrix(0.05,0,0,0.05,17,0)" xlink:href="#Q"/><use transform="matrix(0.05,0,0,0.05,31.950000000000003,0)" xlink:href="#E"/><use transform="matrix(0.05,0,0,0.05,41.95,0)" xlink:href="#L"/><use transform="matrix(0.05,0,0,0.05,50.95,0)" xlink:href="#R"/><use transform="matrix(0.05,0,0,0.05,60.95,0)" xlink:href="#S"/><use transform="matrix(0.05,0,0,0.05,70.95,0)" xlink:href="#z"/><use transform="matrix(0.05,0,0,0.05,80.95,0)" xlink:href="#J"/><use transform="matrix(0.05,0,0,0.05,86.9,0)" xlink:href="#z"/></g><g id="h"><use transform="matrix(0.05,0,0,0.05,0,0)" xlink:href="#G"/><use transform="matrix(0.034999999999999996,0,0,0.034999999999999996,12.950000000000001,2.5199999999999996)" xlink:href="#C"/><use transform="matrix(0.034999999999999996,0,0,0.034999999999999996,19.95,2.5199999999999996)" xlink:href="#B"/><use transform="matrix(0.034999999999999996,0,0,0.034999999999999996,23.45,2.5199999999999996)" xlink:href="#Q"/></g><path d="M101-234c-31-9-42 10-38 44h38v23H63V0H32v-167H5v-23h27c-7-52 17-82 69-68v24" id="T"/><g id="i"><use transform="matrix(0.06172839506172839,0,0,0.06172839506172839,0,0)" xlink:href="#T"/><use transform="matrix(0.043209876543209874,0,0,0.043209876543209874,6.172839506172839,3.1111111111111107)" xlink:href="#F"/><use transform="matrix(0.043209876543209874,0,0,0.043209876543209874,14.814814814814813,3.1111111111111107)" xlink:href="#H"/></g><g id="j"><use transform="matrix(0.06172839506172839,0,0,0.06172839506172839,0,0)" xlink:href="#T"/><use transform="matrix(0.043209876543209874,0,0,0.043209876543209874,6.172839506172839,3.1111111111111107)" xlink:href="#H"/><use transform="matrix(0.043209876543209874,0,0,0.043209876543209874,13.950617283950617,3.1111111111111107)" xlink:href="#M"/></g><g id="k"><use transform="matrix(0.06172839506172839,0,0,0.06172839506172839,0,0)" xlink:href="#T"/><use transform="matrix(0.043209876543209874,0,0,0.043209876543209874,6.172839506172839,3.1111111111111107)" xlink:href="#M"/><use transform="matrix(0.043209876543209874,0,0,0.043209876543209874,14.814814814814813,3.1111111111111107)" xlink:href="#L"/></g><path d="M190 0L58-211 59 0H30v-248h39L202-35l-2-213h31V0h-41" id="U"/><path d="M30-248c87 1 191-15 191 75 0 78-77 80-158 76V0H30v-248zm33 125c57 0 124 11 124-50 0-59-68-47-124-48v98" id="V"/><g id="l"><use transform="matrix(0.05,0,0,0.05,0,0)" xlink:href="#U"/><use transform="matrix(0.05,0,0,0.05,12.950000000000001,0)" xlink:href="#V"/><use transform="matrix(0.05,0,0,0.05,24.950000000000003,0)" xlink:href="#V"/></g><g id="m"><use transform="matrix(0.06172839506172839,0,0,0.06172839506172839,0,0)" xlink:href="#T"/><use transform="matrix(0.043209876543209874,0,0,0.043209876543209874,6.172839506172839,3.1111111111111107)" xlink:href="#F"/><use transform="matrix(0.043209876543209874,0,0,0.043209876543209874,14.814814814814813,3.1111111111111107)" xlink:href="#M"/></g><g id="n"><use transform="matrix(0.06172839506172839,0,0,0.06172839506172839,0,0)" xlink:href="#T"/><use transform="matrix(0.043209876543209874,0,0,0.043209876543209874,6.172839506172839,3.1111111111111107)" xlink:href="#F"/><use transform="matrix(0.043209876543209874,0,0,0.043209876543209874,14.814814814814813,3.1111111111111107)" xlink:href="#L"/></g><g id="o"><use transform="matrix(0.06172839506172839,0,0,0.06172839506172839,0,0)" xlink:href="#T"/><use transform="matrix(0.043209876543209874,0,0,0.043209876543209874,6.172839506172839,3.1111111111111107)" xlink:href="#H"/><use transform="matrix(0.043209876543209874,0,0,0.043209876543209874,13.950617283950617,3.1111111111111107)" xlink:href="#L"/></g><path d="M233-177c-1 41-23 64-60 70L243 0h-38l-65-103H63V0H30v-248c88 3 205-21 203 71zM63-129c60-2 137 13 137-47 0-61-80-42-137-45v92" id="W"/><path d="M197 0v-115H63V0H30v-248h33v105h134v-105h34V0h-34" id="X"/><g id="q"><use transform="matrix(0.05,0,0,0.05,0,0)" xlink:href="#W"/><use transform="matrix(0.05,0,0,0.05,12.950000000000001,0)" xlink:href="#X"/><use transform="matrix(0.034999999999999996,0,0,0.034999999999999996,25.900000000000002,2.5199999999999996)" xlink:href="#L"/></g><g id="r"><use transform="matrix(0.05,0,0,0.05,0,0)" xlink:href="#W"/><use transform="matrix(0.05,0,0,0.05,12.950000000000001,0)" xlink:href="#X"/><use transform="matrix(0.034999999999999996,0,0,0.034999999999999996,25.900000000000002,2.5199999999999996)" xlink:href="#M"/></g><path d="M30 0v-248h33v221h125V0H30" id="Y"/><path d="M16-82v-28h88v28H16" id="Z"/><g id="s"><use transform="matrix(0.05,0,0,0.05,0,0)" xlink:href="#Y"/><use transform="matrix(0.05,0,0,0.05,10,0)" xlink:href="#C"/><use transform="matrix(0.05,0,0,0.05,20,0)" xlink:href="#F"/><use transform="matrix(0.05,0,0,0.05,30,0)" xlink:href="#M"/><use transform="matrix(0.05,0,0,0.05,40,0)" xlink:href="#Z"/><use transform="matrix(0.05,0,0,0.05,45.95,0)" xlink:href="#K"/><use transform="matrix(0.05,0,0,0.05,55.95,0)" xlink:href="#L"/><use transform="matrix(0.05,0,0,0.05,64.95,0)" xlink:href="#z"/></g><path d="M96-169c-40 0-48 33-48 73s9 75 48 75c24 0 41-14 43-38l32 2c-6 37-31 61-74 61-59 0-76-41-82-99-10-93 101-131 147-64 4 7 5 14 7 22l-32 3c-4-21-16-35-41-35" id="aa"/><g id="t"><use transform="matrix(0.05,0,0,0.05,0,0)" xlink:href="#aa"/><use transform="matrix(0.05,0,0,0.05,9,0)" xlink:href="#S"/><use transform="matrix(0.05,0,0,0.05,19,0)" xlink:href="#C"/><use transform="matrix(0.05,0,0,0.05,29,0)" xlink:href="#F"/><use transform="matrix(0.05,0,0,0.05,39,0)" xlink:href="#A"/><use transform="matrix(0.05,0,0,0.05,49,0)" xlink:href="#z"/></g><path d="M63-220v92h138v28H63V0H30v-248h175v28H63" id="ab"/><g id="u"><use transform="matrix(0.05,0,0,0.05,0,0)" xlink:href="#ab"/><use transform="matrix(0.034999999999999996,0,0,0.034999999999999996,10.950000000000003,2.5199999999999996)" xlink:href="#Y"/><use transform="matrix(0.034999999999999996,0,0,0.034999999999999996,17.95,2.5199999999999996)" xlink:href="#G"/></g><g id="v"><use transform="matrix(0.06172839506172839,0,0,0.06172839506172839,0,0)" xlink:href="#T"/><use transform="matrix(0.043209876543209874,0,0,0.043209876543209874,6.172839506172839,3.1111111111111107)" xlink:href="#O"/><use transform="matrix(0.043209876543209874,0,0,0.043209876543209874,9.58641975308642,3.1111111111111107)" xlink:href="#M"/></g><g id="w"><use transform="matrix(0.06172839506172839,0,0,0.06172839506172839,0,0)" xlink:href="#T"/><use transform="matrix(0.043209876543209874,0,0,0.043209876543209874,6.172839506172839,3.1111111111111107)" xlink:href="#O"/><use transform="matrix(0.043209876543209874,0,0,0.043209876543209874,9.58641975308642,3.1111111111111107)" xlink:href="#L"/></g><g id="x"><use transform="matrix(0.06172839506172839,0,0,0.06172839506172839,0,0)" xlink:href="#T"/><use transform="matrix(0.043209876543209874,0,0,0.043209876543209874,6.172839506172839,3.1111111111111107)" xlink:href="#O"/><use transform="matrix(0.043209876543209874,0,0,0.043209876543209874,9.58641975308642,3.1111111111111107)" xlink:href="#H"/></g></defs></g></svg>